<svg xmlns="http://www.w3.org/2000/svg" width="32" height="32" viewBox="0 0 32 32">
  <defs>
    <filter id="glow">
      <feGaussianBlur stdDeviation="0.8" result="coloredBlur"/>
      <feMerge><feMergeNode in="coloredBlur"/><feMergeNode in="SourceGraphic"/></feMerge>
    </filter>
    <radialGradient id="bg" cx="50%" cy="50%" r="50%">
      <stop offset="0%" stop-color="#1a3a5c"/>
      <stop offset="100%" stop-color="#0f1b2d"/>
    </radialGradient>
  </defs>
  <rect width="32" height="32" fill="url(#bg)" rx="4"/>
  <g filter="url(#glow)">
    <line x1="16.0" y1="16.0" x2="29.4" y2="16.0" stroke="#63d2ff" stroke-width="1.4" stroke-linecap="round"/><line x1="20.7" y1="16.0" x2="22.8" y2="18.1" stroke="#63d2ff" stroke-width="0.9" stroke-linecap="round"/><line x1="20.7" y1="16.0" x2="22.8" y2="13.9" stroke="#63d2ff" stroke-width="0.9" stroke-linecap="round"/><line x1="24.3" y1="16.0" x2="25.9" y2="17.5" stroke="#63d2ff" stroke-width="0.9" stroke-linecap="round"/><line x1="24.3" y1="16.0" x2="25.9" y2="14.5" stroke="#63d2ff" stroke-width="0.9" stroke-linecap="round"/><line x1="16.0" y1="16.0" x2="22.7" y2="27.6" stroke="#63d2ff" stroke-width="1.4" stroke-linecap="round"/><line x1="18.4" y1="20.1" x2="17.6" y2="22.9" stroke="#63d2ff" stroke-width="0.9" stroke-linecap="round"/><line x1="18.4" y1="20.1" x2="21.2" y2="20.8" stroke="#63d2ff" stroke-width="0.9" stroke-linecap="round"/><line x1="20.2" y1="23.2" x2="19.6" y2="25.3" stroke="#63d2ff" stroke-width="0.9" stroke-linecap="round"/><line x1="20.2" y1="23.2" x2="22.2" y2="23.8" stroke="#63d2ff" stroke-width="0.9" stroke-linecap="round"/><line x1="16.0" y1="16.0" x2="9.3" y2="27.6" stroke="#63d2ff" stroke-width="1.4" stroke-linecap="round"/><line x1="13.6" y1="20.1" x2="10.8" y2="20.8" stroke="#63d2ff" stroke-width="0.9" stroke-linecap="round"/><line x1="13.6" y1="20.1" x2="14.4" y2="22.9" stroke="#63d2ff" stroke-width="0.9" stroke-linecap="round"/><line x1="11.8" y1="23.2" x2="9.8" y2="23.8" stroke="#63d2ff" stroke-width="0.9" stroke-linecap="round"/><line x1="11.8" y1="23.2" x2="12.4" y2="25.3" stroke="#63d2ff" stroke-width="0.9" stroke-linecap="round"/><line x1="16.0" y1="16.0" x2="2.6" y2="16.0" stroke="#63d2ff" stroke-width="1.4" stroke-linecap="round"/><line x1="11.3" y1="16.0" x2="9.2" y2="13.9" stroke="#63d2ff" stroke-width="0.9" stroke-linecap="round"/><line x1="11.3" y1="16.0" x2="9.2" y2="18.1" stroke="#63d2ff" stroke-width="0.9" stroke-linecap="round"/><line x1="7.7" y1="16.0" x2="6.1" y2="14.5" stroke="#63d2ff" stroke-width="0.9" stroke-linecap="round"/><line x1="7.7" y1="16.0" x2="6.1" y2="17.5" stroke="#63d2ff" stroke-width="0.9" stroke-linecap="round"/><line x1="16.0" y1="16.0" x2="9.3" y2="4.4" stroke="#63d2ff" stroke-width="1.4" stroke-linecap="round"/><line x1="13.6" y1="11.9" x2="14.4" y2="9.1" stroke="#63d2ff" stroke-width="0.9" stroke-linecap="round"/><line x1="13.6" y1="11.9" x2="10.8" y2="11.2" stroke="#63d2ff" stroke-width="0.9" stroke-linecap="round"/><line x1="11.8" y1="8.8" x2="12.4" y2="6.7" stroke="#63d2ff" stroke-width="0.9" stroke-linecap="round"/><line x1="11.8" y1="8.8" x2="9.8" y2="8.2" stroke="#63d2ff" stroke-width="0.9" stroke-linecap="round"/><line x1="16.0" y1="16.0" x2="22.7" y2="4.4" stroke="#63d2ff" stroke-width="1.4" stroke-linecap="round"/><line x1="18.4" y1="11.9" x2="21.2" y2="11.2" stroke="#63d2ff" stroke-width="0.9" stroke-linecap="round"/><line x1="18.4" y1="11.9" x2="17.6" y2="9.1" stroke="#63d2ff" stroke-width="0.9" stroke-linecap="round"/><line x1="20.2" y1="8.8" x2="22.2" y2="8.2" stroke="#63d2ff" stroke-width="0.9" stroke-linecap="round"/><line x1="20.2" y1="8.8" x2="19.6" y2="6.7" stroke="#63d2ff" stroke-width="0.9" stroke-linecap="round"/>
    <circle cx="16.0" cy="16.0" r="2.3" fill="white"/>
  </g>
</svg>