<svg xmlns="http://www.w3.org/2000/svg" width="512" height="512" viewBox="0 0 512 512">
  <defs>
    <filter id="glow">
      <feGaussianBlur stdDeviation="12.8" result="coloredBlur"/>
      <feMerge><feMergeNode in="coloredBlur"/><feMergeNode in="SourceGraphic"/></feMerge>
    </filter>
    <radialGradient id="bg" cx="50%" cy="50%" r="50%">
      <stop offset="0%" stop-color="#1a3a5c"/>
      <stop offset="100%" stop-color="#0f1b2d"/>
    </radialGradient>
  </defs>
  <rect width="512" height="512" fill="url(#bg)" rx="61"/>
  <g filter="url(#glow)">
    <line x1="256.0" y1="256.0" x2="471.0" y2="256.0" stroke="#63d2ff" stroke-width="23.0" stroke-linecap="round"/><line x1="331.3" y1="256.0" x2="364.7" y2="289.5" stroke="#63d2ff" stroke-width="14.3" stroke-linecap="round"/><line x1="331.3" y1="256.0" x2="364.7" y2="222.5" stroke="#63d2ff" stroke-width="14.3" stroke-linecap="round"/><line x1="389.3" y1="256.0" x2="413.7" y2="280.3" stroke="#63d2ff" stroke-width="14.3" stroke-linecap="round"/><line x1="389.3" y1="256.0" x2="413.7" y2="231.7" stroke="#63d2ff" stroke-width="14.3" stroke-linecap="round"/><line x1="256.0" y1="256.0" x2="363.5" y2="442.2" stroke="#63d2ff" stroke-width="23.0" stroke-linecap="round"/><line x1="293.6" y1="321.2" x2="281.4" y2="366.9" stroke="#63d2ff" stroke-width="14.3" stroke-linecap="round"/><line x1="293.6" y1="321.2" x2="339.3" y2="333.4" stroke="#63d2ff" stroke-width="14.3" stroke-linecap="round"/><line x1="322.7" y1="371.5" x2="313.8" y2="404.7" stroke="#63d2ff" stroke-width="14.3" stroke-linecap="round"/><line x1="322.7" y1="371.5" x2="355.9" y2="380.4" stroke="#63d2ff" stroke-width="14.3" stroke-linecap="round"/><line x1="256.0" y1="256.0" x2="148.5" y2="442.2" stroke="#63d2ff" stroke-width="23.0" stroke-linecap="round"/><line x1="218.4" y1="321.2" x2="172.7" y2="333.4" stroke="#63d2ff" stroke-width="14.3" stroke-linecap="round"/><line x1="218.4" y1="321.2" x2="230.6" y2="366.9" stroke="#63d2ff" stroke-width="14.3" stroke-linecap="round"/><line x1="189.3" y1="371.5" x2="156.1" y2="380.4" stroke="#63d2ff" stroke-width="14.3" stroke-linecap="round"/><line x1="189.3" y1="371.5" x2="198.2" y2="404.7" stroke="#63d2ff" stroke-width="14.3" stroke-linecap="round"/><line x1="256.0" y1="256.0" x2="41.0" y2="256.0" stroke="#63d2ff" stroke-width="23.0" stroke-linecap="round"/><line x1="180.7" y1="256.0" x2="147.3" y2="222.5" stroke="#63d2ff" stroke-width="14.3" stroke-linecap="round"/><line x1="180.7" y1="256.0" x2="147.3" y2="289.5" stroke="#63d2ff" stroke-width="14.3" stroke-linecap="round"/><line x1="122.7" y1="256.0" x2="98.3" y2="231.7" stroke="#63d2ff" stroke-width="14.3" stroke-linecap="round"/><line x1="122.7" y1="256.0" x2="98.3" y2="280.3" stroke="#63d2ff" stroke-width="14.3" stroke-linecap="round"/><line x1="256.0" y1="256.0" x2="148.5" y2="69.8" stroke="#63d2ff" stroke-width="23.0" stroke-linecap="round"/><line x1="218.4" y1="190.8" x2="230.6" y2="145.1" stroke="#63d2ff" stroke-width="14.3" stroke-linecap="round"/><line x1="218.4" y1="190.8" x2="172.7" y2="178.6" stroke="#63d2ff" stroke-width="14.3" stroke-linecap="round"/><line x1="189.3" y1="140.5" x2="198.2" y2="107.3" stroke="#63d2ff" stroke-width="14.3" stroke-linecap="round"/><line x1="189.3" y1="140.5" x2="156.1" y2="131.6" stroke="#63d2ff" stroke-width="14.3" stroke-linecap="round"/><line x1="256.0" y1="256.0" x2="363.5" y2="69.8" stroke="#63d2ff" stroke-width="23.0" stroke-linecap="round"/><line x1="293.6" y1="190.8" x2="339.3" y2="178.6" stroke="#63d2ff" stroke-width="14.3" stroke-linecap="round"/><line x1="293.6" y1="190.8" x2="281.4" y2="145.1" stroke="#63d2ff" stroke-width="14.3" stroke-linecap="round"/><line x1="322.7" y1="140.5" x2="355.9" y2="131.6" stroke="#63d2ff" stroke-width="14.3" stroke-linecap="round"/><line x1="322.7" y1="140.5" x2="313.8" y2="107.3" stroke="#63d2ff" stroke-width="14.3" stroke-linecap="round"/>
    <circle cx="256.0" cy="256.0" r="36.9" fill="white"/>
  </g>
</svg>